<?xml version="1.0" standalone="no"?>
<!DOCTYPE svg PUBLIC "-//W3C//DTD SVG 20010904//EN"
 "http://www.w3.org/TR/2001/REC-SVG-20010904/DTD/svg10.dtd">
<svg version="1.0" xmlns="http://www.w3.org/2000/svg"
 width="100.000000pt" height="100.000000pt" viewBox="0 0 100.000000 100.000000"
 preserveAspectRatio="xMidYMid meet">
<metadata>
Created by potrace 1.14, written by Peter Selinger 2001-2017
</metadata>
<g transform="translate(0.000000,100.000000) scale(0.100000,-0.100000)"
fill="#000000" stroke="none">
<path d="M634 873 c-19 -20 -36 -45 -40 -55 -5 -17 -21 -18 -209 -18 -217 0
-245 -5 -264 -47 -7 -15 -11 -103 -11 -239 0 -209 5 -247 33 -265 6 -4 1 -16
-12 -30 -27 -29 -27 -59 -1 -87 23 -24 22 -24 104 -24 39 0 55 -3 46 -8 -11
-7 -9 -9 7 -7 12 0 19 5 17 9 -3 4 0 8 5 8 6 0 11 -6 11 -12 0 -10 2 -10 8 -1
9 14 52 13 52 -2 0 -5 5 -3 10 5 9 13 11 13 20 0 6 -9 10 -10 10 -3 0 7 20 11
56 11 34 0 51 -4 43 -9 -10 -6 -7 -8 8 -6 12 0 19 5 17 9 -3 4 0 8 5 8 6 0 11
-6 11 -12 0 -10 2 -10 9 0 9 15 42 13 53 -3 5 -7 8 -6 8 0 0 6 15 12 33 13 23
2 28 0 17 -8 -12 -7 -10 -9 7 -7 12 0 19 5 17 9 -3 4 0 8 5 8 6 0 11 -6 11
-12 0 -10 2 -10 9 0 9 15 42 13 53 -3 5 -6 8 -5 8 3 0 16 51 13 62 -3 5 -6 8
-5 8 2 0 7 10 17 22 24 18 10 20 9 15 -5 -4 -11 -3 -15 4 -11 5 4 7 16 3 27
-4 13 -2 18 4 14 6 -3 14 -1 18 5 5 8 3 9 -6 4 -10 -6 -12 -3 -8 13 4 14 -2
30 -17 46 -17 18 -20 27 -11 37 8 9 8 10 -3 4 -10 -6 -12 -4 -5 6 5 8 8 23 7
34 -2 11 0 14 3 8 9 -21 23 -15 17 7 -3 13 1 22 12 26 13 5 14 9 3 15 -11 7
-10 11 2 19 12 8 12 10 1 10 -11 0 -11 3 0 17 12 14 12 16 0 8 -11 -6 -13 -3
-8 15 6 22 -25 95 -36 84 -5 -5 -2 21 3 36 1 3 2 8 1 13 0 4 3 7 9 7 5 0 6 7
3 17 -4 9 -2 14 3 11 5 -4 9 8 9 25 0 21 4 31 13 29 8 -1 11 2 7 8 -3 6 -11 8
-16 5 -11 -7 0 24 15 44 8 11 8 13 -1 7 -7 -4 -13 -3 -13 1 0 5 6 15 13 22 10
11 9 12 -2 6 -11 -6 -13 -4 -8 8 8 21 -5 58 -28 81 -14 13 -27 15 -61 10 -24
-3 -44 -2 -44 3 0 5 -13 23 -29 41 -41 44 -74 43 -117 -5z"/>
</g>
</svg>
