<?xml version="1.0" standalone="no"?>
<!DOCTYPE svg PUBLIC "-//W3C//DTD SVG 20010904//EN"
 "http://www.w3.org/TR/2001/REC-SVG-20010904/DTD/svg10.dtd">
<svg version="1.0" xmlns="http://www.w3.org/2000/svg"
 width="513.000000pt" height="513.000000pt" viewBox="0 0 513.000000 513.000000"
 preserveAspectRatio="xMidYMid meet">
<metadata>
Created by potrace 1.14, written by Peter Selinger 2001-2017
</metadata>
<g transform="translate(0.000000,513.000000) scale(0.100000,-0.100000)"
fill="#000000" stroke="none">
<path d="M2400 5122 c-85 -5 -313 -36 -352 -48 -10 -3 -30 -7 -45 -10 -218
-39 -550 -174 -788 -322 -186 -116 -306 -212 -470 -376 -284 -286 -482 -607
-611 -991 -63 -189 -103 -371 -121 -552 -10 -98 -9 -448 1 -528 39 -319 123
-600 260 -875 276 -554 755 -998 1321 -1225 50 -20 99 -40 110 -44 27 -12 142
-46 237 -71 304 -79 686 -96 1013 -44 461 73 908 276 1255 572 87 74 245 233
306 307 27 33 51 62 54 65 12 11 108 148 155 220 90 139 250 483 270 580 2 8
8 27 14 42 6 15 22 76 36 135 32 134 33 141 40 189 3 21 7 48 10 59 19 97 27
471 13 615 -51 511 -263 1007 -603 1410 -16 19 -86 91 -155 160 -132 132 -293
259 -448 354 -83 51 -322 176 -336 176 -4 0 -25 9 -49 20 -86 40 -330 114
-442 134 -16 3 -41 8 -55 11 -143 30 -443 48 -620 37z m209 -937 c14 -8 38
-24 53 -37 14 -13 37 -31 50 -40 13 -9 100 -76 193 -149 94 -72 193 -149 220
-169 28 -21 118 -92 202 -157 83 -65 226 -176 317 -246 90 -71 171 -135 178
-144 10 -13 13 -182 13 -857 1 -462 -3 -853 -8 -868 -19 -57 -23 -58 -416 -58
-205 0 -371 4 -385 10 -52 19 -52 24 -52 578 l1 512 -389 -2 -390 -3 -2 -510
c0 -280 -2 -516 -3 -523 0 -7 -12 -24 -26 -37 l-24 -25 -365 0 c-256 0 -373 3
-391 12 -16 7 -28 24 -35 47 -13 52 -12 1686 2 1717 6 13 63 65 127 116 64 51
157 126 206 166 50 40 97 79 105 85 45 35 516 412 520 417 13 14 197 158 212
166 27 15 58 14 87 -1z"/>
</g>
</svg>
