<?xml version="1.0" standalone="no"?>
<!DOCTYPE svg PUBLIC "-//W3C//DTD SVG 20010904//EN"
 "http://www.w3.org/TR/2001/REC-SVG-20010904/DTD/svg10.dtd">
<svg version="1.0" xmlns="http://www.w3.org/2000/svg"
 width="100.000000pt" height="100.000000pt" viewBox="0 0 100.000000 100.000000"
 preserveAspectRatio="xMidYMid meet">
<metadata>
Created by potrace 1.14, written by Peter Selinger 2001-2017
</metadata>
<g transform="translate(0.000000,100.000000) scale(0.100000,-0.100000)"
fill="#000000" stroke="none">
<path d="M365 852 c-133 -46 -214 -169 -202 -310 4 -51 14 -83 47 -146 40 -76
43 -88 48 -178 3 -54 9 -98 15 -98 6 0 8 38 5 98 -3 91 -6 104 -46 183 -70
140 -66 238 13 343 66 85 205 127 305 91 99 -35 157 -98 189 -201 10 -33 32
-81 49 -108 18 -28 32 -53 32 -56 0 -4 -18 -15 -40 -25 -40 -18 -40 -18 -40
-76 0 -47 -5 -63 -24 -86 -23 -26 -31 -28 -123 -34 -54 -3 -79 -6 -55 -7 l42
-2 0 -60 c0 -33 4 -60 10 -60 6 0 10 24 10 54 l0 53 52 5 c42 4 57 11 80 37
24 27 28 40 28 89 l0 57 40 18 c23 10 40 24 40 33 0 9 -16 43 -36 75 -19 32
-37 71 -40 86 -9 50 -47 117 -91 160 -79 77 -201 102 -308 65z"/>
<path d="M486 713 c-50 -172 -66 -236 -62 -241 3 -3 9 -3 12 1 6 6 74 235 74
249 0 15 -19 8 -24 -9z"/>
<path d="M322 647 l-42 -43 47 -48 c27 -28 49 -43 51 -36 2 6 -12 29 -32 49
l-36 37 35 34 c34 33 43 50 27 50 -4 0 -27 -19 -50 -43z"/>
<path d="M550 681 c0 -6 8 -16 18 -23 9 -7 25 -23 36 -35 18 -22 18 -22 -17
-60 -20 -20 -33 -41 -30 -46 5 -9 93 70 93 84 0 10 -81 89 -91 89 -5 0 -9 -4
-9 -9z"/>
<path d="M468 243 c7 -3 16 -2 19 1 4 3 -2 6 -13 5 -11 0 -14 -3 -6 -6z"/>
</g>
</svg>
